<svg width="224" height="32" viewBox="0 0 224 32" fill="none" xmlns="http://www.w3.org/2000/svg">
<path fill-rule="evenodd" clip-rule="evenodd" d="M18.3122 0.708862L36.6243 30.9333H31.6669L18.3122 8.89117L4.95743 30.9333H0L18.3122 0.708862Z" fill="#0F67FE"/>
<path fill-rule="evenodd" clip-rule="evenodd" d="M49.5091 1.06665L53.2103 5.33332H68.5443C69.9686 5.33332 72.6778 5.58516 74.9659 7.01388C77.0895 8.33984 79.1196 10.8363 79.1196 16C79.1196 21.1637 77.0895 23.6601 74.9659 24.9861C72.6778 26.4148 69.9686 26.6666 68.5443 26.6666H53.2103L48.9804 30.9333H68.5443C70.2926 30.9333 73.9286 30.6518 77.1924 28.6139C80.6209 26.4732 83.3496 22.5696 83.3496 16C83.3496 9.43035 80.6209 5.52679 77.1924 3.38608C73.9286 1.34814 70.2926 1.06665 68.5443 1.06665H49.5091Z" fill="#0F67FE"/>
<path d="M123.5 6.93333C125.272 6.93333 126.708 5.50064 126.708 3.73333C126.708 1.96601 125.272 0.533325 123.5 0.533325C122.221 0.533325 121.116 1.28078 120.601 2.3619H98.7895L96.0399 5.10475H120.601C121.116 6.18587 122.221 6.93333 123.5 6.93333Z" fill="#0F67FE"/>
<path d="M123.5 31.4667C125.272 31.4667 126.708 30.034 126.708 28.2667C126.708 26.4993 125.272 25.0667 123.5 25.0667C122.221 25.0667 121.116 25.8141 120.601 26.8952H98.7895L96.0399 29.6381H120.601C121.116 30.7192 122.221 31.4667 123.5 31.4667Z" fill="#0F67FE"/>
<path d="M159.491 19.2C161.243 19.2 162.664 17.7674 162.664 16C162.664 14.2327 161.243 12.8 159.491 12.8C158.226 12.8 157.133 13.5475 156.624 14.6286H104.576L101.856 17.3715H156.624C157.133 18.4526 158.226 19.2 159.491 19.2Z" fill="#0F67FE"/>
<path d="M171.124 16C171.124 22.5598 166.075 27.7333 160.02 27.7333C155.36 27.7333 151.296 24.6689 149.67 20.2667H145.239C147.021 26.9904 152.913 32 160.02 32C168.566 32 175.354 24.7569 175.354 16C175.354 7.24308 168.566 0 160.02 0C152.88 0 146.967 5.0559 145.215 11.8265H149.637C151.239 7.37433 155.327 4.26667 160.02 4.26667C166.075 4.26667 171.124 9.44023 171.124 16Z" fill="#0F67FE"/>
<path d="M197.562 9.37813L224 31.7781V1.06669L219.77 5.33336V22.6219L193.332 0.221924V32L197.562 27.7334V9.37813Z" fill="#0F67FE"/>
</svg>
